<mxfile host="app.diagrams.net" modified="2021-08-19T21:51:55.645Z" agent="5.0 (Windows NT 10.0; Win64; x64) AppleWebKit/537.36 (KHTML, like Gecko) Chrome/92.0.4515.131 Safari/537.36" etag="dBsyB4x8sagEh60F3E9H" version="14.9.7" type="github" pages="3">
  <diagram name="MVC" id="Q8OBK8jg8iarGJ4GkFMG">
    <mxGraphModel dx="1246" dy="534" grid="1" gridSize="10" guides="1" tooltips="1" connect="1" arrows="1" fold="1" page="1" pageScale="1" pageWidth="850" pageHeight="1100" math="0" shadow="0">
      <root>
        <mxCell id="kVNsoRKstzG-KrucpYmG-0" />
        <mxCell id="kVNsoRKstzG-KrucpYmG-1" parent="kVNsoRKstzG-KrucpYmG-0" />
        <mxCell id="kVNsoRKstzG-KrucpYmG-2" value="&lt;p style=&quot;margin: 0px ; margin-top: 4px ; text-align: center&quot;&gt;&lt;b&gt;Controller&lt;/b&gt;&lt;/p&gt;&lt;hr size=&quot;1&quot;&gt;&lt;p style=&quot;margin: 0px ; margin-left: 4px&quot;&gt;&lt;br&gt;&lt;/p&gt;&lt;hr size=&quot;1&quot;&gt;&lt;p style=&quot;margin: 0px ; margin-left: 4px&quot;&gt;+ AlgorithmInterface()&lt;br&gt;&lt;/p&gt;" style="verticalAlign=top;align=left;overflow=fill;fontSize=12;fontFamily=Helvetica;html=1;" vertex="1" parent="kVNsoRKstzG-KrucpYmG-1">
          <mxGeometry x="1040" y="83" width="190" height="80" as="geometry" />
        </mxCell>
        <mxCell id="kVNsoRKstzG-KrucpYmG-3" value="&lt;p style=&quot;margin: 0px ; margin-top: 4px ; text-align: center&quot;&gt;&lt;b&gt;ConcreteController&lt;/b&gt;&lt;/p&gt;&lt;hr size=&quot;1&quot;&gt;&lt;p style=&quot;margin: 0px ; margin-left: 4px&quot;&gt;&lt;br&gt;&lt;/p&gt;&lt;hr size=&quot;1&quot;&gt;&lt;p style=&quot;margin: 0px ; margin-left: 4px&quot;&gt;+ AlgorithmInterface()&lt;br&gt;&lt;/p&gt;" style="verticalAlign=top;align=left;overflow=fill;fontSize=12;fontFamily=Helvetica;html=1;" vertex="1" parent="kVNsoRKstzG-KrucpYmG-1">
          <mxGeometry x="1040" y="458" width="190" height="80" as="geometry" />
        </mxCell>
        <mxCell id="kVNsoRKstzG-KrucpYmG-4" value="&lt;p style=&quot;margin: 0px ; margin-top: 4px ; text-align: center&quot;&gt;&lt;b&gt;View&lt;/b&gt;&lt;/p&gt;&lt;hr size=&quot;1&quot;&gt;&lt;p style=&quot;margin: 0px ; margin-left: 4px&quot;&gt;&lt;br&gt;&lt;/p&gt;&lt;hr size=&quot;1&quot;&gt;&lt;p style=&quot;margin: 0px ; margin-left: 4px&quot;&gt;+ Update()&lt;br&gt;&lt;/p&gt;&lt;p style=&quot;margin: 0px ; margin-left: 4px&quot;&gt;+ ContextInterface()&lt;/p&gt;" style="verticalAlign=top;align=left;overflow=fill;fontSize=12;fontFamily=Helvetica;html=1;" vertex="1" parent="kVNsoRKstzG-KrucpYmG-1">
          <mxGeometry x="710" y="78" width="190" height="90" as="geometry" />
        </mxCell>
        <mxCell id="kVNsoRKstzG-KrucpYmG-5" value="&lt;p style=&quot;margin: 0px ; margin-top: 4px ; text-align: center&quot;&gt;&lt;b&gt;Model&lt;/b&gt;&lt;/p&gt;&lt;hr size=&quot;1&quot;&gt;&lt;p style=&quot;margin: 0px ; margin-left: 4px&quot;&gt;&lt;br&gt;&lt;/p&gt;&lt;hr size=&quot;1&quot;&gt;&lt;p style=&quot;margin: 0px ; margin-left: 4px&quot;&gt;+ Attach(in observer: View)&lt;br&gt;&lt;/p&gt;&lt;p style=&quot;margin: 0px ; margin-left: 4px&quot;&gt;+ Detach(in observer: View)&lt;/p&gt;&lt;p style=&quot;margin: 0px ; margin-left: 4px&quot;&gt;+ Notify()&lt;/p&gt;" style="verticalAlign=top;align=left;overflow=fill;fontSize=12;fontFamily=Helvetica;html=1;" vertex="1" parent="kVNsoRKstzG-KrucpYmG-1">
          <mxGeometry x="350" y="73" width="190" height="100" as="geometry" />
        </mxCell>
        <mxCell id="kVNsoRKstzG-KrucpYmG-6" value="&lt;p style=&quot;margin: 0px ; margin-top: 4px ; text-align: center&quot;&gt;&lt;b&gt;ConcreteModel&lt;/b&gt;&lt;/p&gt;&lt;hr size=&quot;1&quot;&gt;&lt;p style=&quot;margin: 0px ; margin-left: 4px&quot;&gt;- subjectState&lt;/p&gt;&lt;hr size=&quot;1&quot;&gt;&lt;p style=&quot;margin: 0px ; margin-left: 4px&quot;&gt;+ SetState()&lt;br&gt;&lt;/p&gt;&lt;p style=&quot;margin: 0px ; margin-left: 4px&quot;&gt;+ GetState()&lt;/p&gt;" style="verticalAlign=top;align=left;overflow=fill;fontSize=12;fontFamily=Helvetica;html=1;" vertex="1" parent="kVNsoRKstzG-KrucpYmG-1">
          <mxGeometry x="350" y="410" width="190" height="90" as="geometry" />
        </mxCell>
        <mxCell id="kVNsoRKstzG-KrucpYmG-7" value="&lt;p style=&quot;margin: 0px ; margin-top: 4px ; text-align: center&quot;&gt;&lt;b&gt;ConcreteView&lt;/b&gt;&lt;/p&gt;&lt;hr size=&quot;1&quot;&gt;&lt;p style=&quot;margin: 0px ; margin-left: 4px&quot;&gt;- observerState&lt;/p&gt;&lt;hr size=&quot;1&quot;&gt;&lt;p style=&quot;margin: 0px ; margin-left: 4px&quot;&gt;+ Update()&lt;/p&gt;" style="verticalAlign=top;align=left;overflow=fill;fontSize=12;fontFamily=Helvetica;html=1;" vertex="1" parent="kVNsoRKstzG-KrucpYmG-1">
          <mxGeometry x="710" y="310" width="190" height="80" as="geometry" />
        </mxCell>
        <mxCell id="kVNsoRKstzG-KrucpYmG-8" value="" style="endArrow=block;startArrow=none;endFill=1;startFill=0;html=1;entryX=0;entryY=0.5;entryDx=0;entryDy=0;exitX=1;exitY=0.5;exitDx=0;exitDy=0;" edge="1" parent="kVNsoRKstzG-KrucpYmG-1" source="kVNsoRKstzG-KrucpYmG-5" target="kVNsoRKstzG-KrucpYmG-4">
          <mxGeometry width="160" relative="1" as="geometry">
            <mxPoint x="520" y="180" as="sourcePoint" />
            <mxPoint x="680" y="180" as="targetPoint" />
          </mxGeometry>
        </mxCell>
        <mxCell id="kVNsoRKstzG-KrucpYmG-9" value="Update View" style="edgeLabel;html=1;align=center;verticalAlign=middle;resizable=0;points=[];" vertex="1" connectable="0" parent="kVNsoRKstzG-KrucpYmG-8">
          <mxGeometry x="0.2379" y="-4" relative="1" as="geometry">
            <mxPoint x="-15" y="-17" as="offset" />
          </mxGeometry>
        </mxCell>
        <mxCell id="kVNsoRKstzG-KrucpYmG-10" value="" style="endArrow=block;endSize=16;endFill=0;html=1;entryX=0.5;entryY=1;entryDx=0;entryDy=0;exitX=0.5;exitY=0;exitDx=0;exitDy=0;" edge="1" parent="kVNsoRKstzG-KrucpYmG-1" source="kVNsoRKstzG-KrucpYmG-3" target="kVNsoRKstzG-KrucpYmG-2">
          <mxGeometry width="160" relative="1" as="geometry">
            <mxPoint x="1040" y="349.16999999999996" as="sourcePoint" />
            <mxPoint x="1200" y="349.16999999999996" as="targetPoint" />
          </mxGeometry>
        </mxCell>
        <mxCell id="kVNsoRKstzG-KrucpYmG-11" value="" style="endArrow=block;endSize=16;endFill=0;html=1;entryX=0.5;entryY=1;entryDx=0;entryDy=0;exitX=0.5;exitY=0;exitDx=0;exitDy=0;" edge="1" parent="kVNsoRKstzG-KrucpYmG-1" source="kVNsoRKstzG-KrucpYmG-7" target="kVNsoRKstzG-KrucpYmG-4">
          <mxGeometry width="160" relative="1" as="geometry">
            <mxPoint x="1145" y="460" as="sourcePoint" />
            <mxPoint x="1145" y="173" as="targetPoint" />
          </mxGeometry>
        </mxCell>
        <mxCell id="kVNsoRKstzG-KrucpYmG-12" value="" style="html=1;verticalAlign=bottom;endArrow=block;entryX=1;entryY=0;entryDx=0;entryDy=0;exitX=0;exitY=0.25;exitDx=0;exitDy=0;" edge="1" parent="kVNsoRKstzG-KrucpYmG-1" source="kVNsoRKstzG-KrucpYmG-7" target="kVNsoRKstzG-KrucpYmG-6">
          <mxGeometry width="80" relative="1" as="geometry">
            <mxPoint x="510" y="270" as="sourcePoint" />
            <mxPoint x="590" y="270" as="targetPoint" />
          </mxGeometry>
        </mxCell>
        <mxCell id="kVNsoRKstzG-KrucpYmG-13" value="subject" style="edgeLabel;html=1;align=center;verticalAlign=middle;resizable=0;points=[];rotation=-30;" vertex="1" connectable="0" parent="kVNsoRKstzG-KrucpYmG-12">
          <mxGeometry x="-0.446" y="-2" relative="1" as="geometry">
            <mxPoint x="-12" y="-10" as="offset" />
          </mxGeometry>
        </mxCell>
        <mxCell id="kVNsoRKstzG-KrucpYmG-14" value="" style="html=1;verticalAlign=bottom;endArrow=block;entryX=1;entryY=0.75;entryDx=0;entryDy=0;exitX=0;exitY=0.25;exitDx=0;exitDy=0;" edge="1" parent="kVNsoRKstzG-KrucpYmG-1" source="kVNsoRKstzG-KrucpYmG-3" target="kVNsoRKstzG-KrucpYmG-6">
          <mxGeometry width="80" relative="1" as="geometry">
            <mxPoint x="720" y="340" as="sourcePoint" />
            <mxPoint x="540" y="420" as="targetPoint" />
          </mxGeometry>
        </mxCell>
        <mxCell id="kVNsoRKstzG-KrucpYmG-15" value="Update Model" style="edgeLabel;html=1;align=center;verticalAlign=middle;resizable=0;points=[];" vertex="1" connectable="0" parent="kVNsoRKstzG-KrucpYmG-14">
          <mxGeometry x="-0.6809" y="-5" relative="1" as="geometry">
            <mxPoint x="10" y="-13" as="offset" />
          </mxGeometry>
        </mxCell>
        <mxCell id="kVNsoRKstzG-KrucpYmG-16" value="" style="endArrow=block;endSize=16;endFill=0;html=1;entryX=0.5;entryY=1;entryDx=0;entryDy=0;exitX=0.5;exitY=0;exitDx=0;exitDy=0;" edge="1" parent="kVNsoRKstzG-KrucpYmG-1" source="kVNsoRKstzG-KrucpYmG-6" target="kVNsoRKstzG-KrucpYmG-5">
          <mxGeometry width="160" relative="1" as="geometry">
            <mxPoint x="815" y="320" as="sourcePoint" />
            <mxPoint x="815" y="178" as="targetPoint" />
          </mxGeometry>
        </mxCell>
        <mxCell id="kVNsoRKstzG-KrucpYmG-17" value="" style="endArrow=open;html=1;endSize=12;startArrow=diamondThin;startSize=14;startFill=0;edgeStyle=orthogonalEdgeStyle;align=left;verticalAlign=bottom;entryX=0;entryY=0.5;entryDx=0;entryDy=0;exitX=1;exitY=0.5;exitDx=0;exitDy=0;" edge="1" parent="kVNsoRKstzG-KrucpYmG-1" source="kVNsoRKstzG-KrucpYmG-4" target="kVNsoRKstzG-KrucpYmG-2">
          <mxGeometry x="-1" y="3" relative="1" as="geometry">
            <mxPoint x="950" y="240" as="sourcePoint" />
            <mxPoint x="1110" y="240" as="targetPoint" />
          </mxGeometry>
        </mxCell>
        <mxCell id="kVNsoRKstzG-KrucpYmG-18" value="Execute event" style="edgeLabel;html=1;align=center;verticalAlign=middle;resizable=0;points=[];" vertex="1" connectable="0" parent="kVNsoRKstzG-KrucpYmG-17">
          <mxGeometry x="0.2175" relative="1" as="geometry">
            <mxPoint x="-15" y="-13" as="offset" />
          </mxGeometry>
        </mxCell>
        <mxCell id="kVNsoRKstzG-KrucpYmG-19" value="&lt;b&gt;&lt;font style=&quot;font-size: 45px&quot;&gt;MVC&lt;/font&gt;&lt;/b&gt;" style="text;html=1;align=center;verticalAlign=middle;resizable=0;points=[];autosize=1;strokeColor=none;" vertex="1" parent="kVNsoRKstzG-KrucpYmG-1">
          <mxGeometry x="745" y="30" width="120" height="30" as="geometry" />
        </mxCell>
      </root>
    </mxGraphModel>
  </diagram>
  <diagram id="Fx8kKY_BRM-Lc1JYMPlF" name="MVP">
    <mxGraphModel dx="1246" dy="534" grid="1" gridSize="10" guides="1" tooltips="1" connect="1" arrows="1" fold="1" page="1" pageScale="1" pageWidth="850" pageHeight="1100" math="0" shadow="0">
      <root>
        <mxCell id="0" />
        <mxCell id="1" parent="0" />
        <mxCell id="iWd5NyOoECmbzADoSU0J-9" value="&lt;p style=&quot;margin: 0px ; margin-top: 4px ; text-align: center&quot;&gt;&lt;b&gt;View&lt;/b&gt;&lt;/p&gt;&lt;hr size=&quot;1&quot;&gt;&lt;p style=&quot;margin: 0px ; margin-left: 4px&quot;&gt;&lt;br&gt;&lt;/p&gt;&lt;hr size=&quot;1&quot;&gt;&lt;p style=&quot;margin: 0px ; margin-left: 4px&quot;&gt;+ Update()&lt;/p&gt;" style="verticalAlign=top;align=left;overflow=fill;fontSize=12;fontFamily=Helvetica;html=1;" vertex="1" parent="1">
          <mxGeometry x="120" y="230" width="90" height="80" as="geometry" />
        </mxCell>
        <mxCell id="iWd5NyOoECmbzADoSU0J-10" value="&lt;p style=&quot;margin: 0px ; margin-top: 4px ; text-align: center&quot;&gt;&lt;b&gt;Model&lt;/b&gt;&lt;/p&gt;&lt;hr size=&quot;1&quot;&gt;&lt;p style=&quot;margin: 0px ; margin-left: 4px&quot;&gt;&lt;br&gt;&lt;/p&gt;&lt;hr size=&quot;1&quot;&gt;&lt;p style=&quot;margin: 0px ; margin-left: 4px&quot;&gt;+ SetState()&lt;/p&gt;&lt;p style=&quot;margin: 0px ; margin-left: 4px&quot;&gt;+ GetState()&lt;/p&gt;" style="verticalAlign=top;align=left;overflow=fill;fontSize=12;fontFamily=Helvetica;html=1;" vertex="1" parent="1">
          <mxGeometry x="100" y="518" width="110" height="100" as="geometry" />
        </mxCell>
        <mxCell id="iWd5NyOoECmbzADoSU0J-30" value="&lt;b&gt;&lt;font style=&quot;font-size: 45px&quot;&gt;MVP&lt;/font&gt;&lt;/b&gt;" style="text;html=1;align=center;verticalAlign=middle;resizable=0;points=[];autosize=1;strokeColor=none;" vertex="1" parent="1">
          <mxGeometry x="400" y="90" width="110" height="30" as="geometry" />
        </mxCell>
        <mxCell id="wLuInHaEAMxixHWDk6zt-2" value="&lt;p style=&quot;margin: 0px ; margin-top: 4px ; text-align: center&quot;&gt;&lt;b&gt;Interactor&lt;/b&gt;&lt;/p&gt;&lt;hr size=&quot;1&quot;&gt;&lt;p style=&quot;margin: 0px ; margin-left: 4px&quot;&gt;&lt;br&gt;&lt;/p&gt;&lt;hr size=&quot;1&quot;&gt;&lt;p style=&quot;margin: 0px ; margin-left: 4px&quot;&gt;+ AddItem()&lt;/p&gt;" style="verticalAlign=top;align=left;overflow=fill;fontSize=12;fontFamily=Helvetica;html=1;" vertex="1" parent="1">
          <mxGeometry x="410" y="160" width="90" height="80" as="geometry" />
        </mxCell>
        <mxCell id="wLuInHaEAMxixHWDk6zt-3" value="&lt;p style=&quot;margin: 0px ; margin-top: 4px ; text-align: center&quot;&gt;&lt;b&gt;Presenter&lt;/b&gt;&lt;/p&gt;&lt;hr size=&quot;1&quot;&gt;&lt;p style=&quot;margin: 0px ; margin-left: 4px&quot;&gt;&lt;br&gt;&lt;/p&gt;&lt;hr size=&quot;1&quot;&gt;&lt;p style=&quot;margin: 0px ; margin-left: 4px&quot;&gt;+ CreateView()&lt;/p&gt;" style="verticalAlign=top;align=left;overflow=fill;fontSize=12;fontFamily=Helvetica;html=1;" vertex="1" parent="1">
          <mxGeometry x="410" y="370" width="90" height="80" as="geometry" />
        </mxCell>
        <mxCell id="wLuInHaEAMxixHWDk6zt-4" value="&lt;p style=&quot;margin: 0px ; margin-top: 4px ; text-align: center&quot;&gt;&lt;b&gt;Command&lt;/b&gt;&lt;/p&gt;&lt;hr size=&quot;1&quot;&gt;&lt;p style=&quot;margin: 0px ; margin-left: 4px&quot;&gt;&lt;br&gt;&lt;/p&gt;&lt;hr size=&quot;1&quot;&gt;&lt;p style=&quot;margin: 0px ; margin-left: 4px&quot;&gt;+ doCommand()&lt;/p&gt;&lt;p style=&quot;margin: 0px ; margin-left: 4px&quot;&gt;+ undoCommand&lt;/p&gt;" style="verticalAlign=top;align=left;overflow=fill;fontSize=12;fontFamily=Helvetica;html=1;" vertex="1" parent="1">
          <mxGeometry x="400" y="528" width="110" height="92" as="geometry" />
        </mxCell>
        <mxCell id="wLuInHaEAMxixHWDk6zt-5" value="&lt;p style=&quot;margin: 0px ; margin-top: 4px ; text-align: center&quot;&gt;&lt;b&gt;Selection&lt;/b&gt;&lt;/p&gt;&lt;hr size=&quot;1&quot;&gt;&lt;p style=&quot;margin: 0px ; margin-left: 4px&quot;&gt;- State&lt;/p&gt;&lt;hr size=&quot;1&quot;&gt;&lt;p style=&quot;margin: 0px ; margin-left: 4px&quot;&gt;&lt;br&gt;&lt;/p&gt;" style="verticalAlign=top;align=left;overflow=fill;fontSize=12;fontFamily=Helvetica;html=1;" vertex="1" parent="1">
          <mxGeometry x="640" y="370" width="90" height="80" as="geometry" />
        </mxCell>
        <mxCell id="wLuInHaEAMxixHWDk6zt-10" value="" style="endArrow=open;endFill=1;endSize=12;html=1;entryX=0.75;entryY=1;entryDx=0;entryDy=0;exitX=0.75;exitY=0;exitDx=0;exitDy=0;" edge="1" parent="1" source="wLuInHaEAMxixHWDk6zt-3" target="wLuInHaEAMxixHWDk6zt-2">
          <mxGeometry width="160" relative="1" as="geometry">
            <mxPoint x="220" y="460" as="sourcePoint" />
            <mxPoint x="380" y="460" as="targetPoint" />
          </mxGeometry>
        </mxCell>
        <mxCell id="wLuInHaEAMxixHWDk6zt-11" value="" style="endArrow=open;endFill=1;endSize=12;html=1;entryX=0.25;entryY=0;entryDx=0;entryDy=0;exitX=0.25;exitY=1;exitDx=0;exitDy=0;" edge="1" parent="1" source="wLuInHaEAMxixHWDk6zt-2" target="wLuInHaEAMxixHWDk6zt-3">
          <mxGeometry width="160" relative="1" as="geometry">
            <mxPoint x="487.5" y="380" as="sourcePoint" />
            <mxPoint x="487.5" y="250" as="targetPoint" />
          </mxGeometry>
        </mxCell>
        <mxCell id="wLuInHaEAMxixHWDk6zt-12" value="" style="endArrow=open;endFill=1;endSize=12;html=1;entryX=0;entryY=0.25;entryDx=0;entryDy=0;exitX=1;exitY=0.25;exitDx=0;exitDy=0;" edge="1" parent="1" source="iWd5NyOoECmbzADoSU0J-9" target="wLuInHaEAMxixHWDk6zt-2">
          <mxGeometry width="160" relative="1" as="geometry">
            <mxPoint x="442.5" y="250" as="sourcePoint" />
            <mxPoint x="442.5" y="380" as="targetPoint" />
          </mxGeometry>
        </mxCell>
        <mxCell id="wLuInHaEAMxixHWDk6zt-14" value="" style="endArrow=open;html=1;endSize=12;startArrow=diamondThin;startSize=14;startFill=0;edgeStyle=orthogonalEdgeStyle;align=left;verticalAlign=bottom;entryX=1;entryY=0.5;entryDx=0;entryDy=0;exitX=0;exitY=0.25;exitDx=0;exitDy=0;" edge="1" parent="1" source="wLuInHaEAMxixHWDk6zt-3" target="iWd5NyOoECmbzADoSU0J-9">
          <mxGeometry x="-1" y="3" relative="1" as="geometry">
            <mxPoint x="150" y="430" as="sourcePoint" />
            <mxPoint x="310" y="430" as="targetPoint" />
          </mxGeometry>
        </mxCell>
        <mxCell id="wLuInHaEAMxixHWDk6zt-15" value="" style="endArrow=open;html=1;endSize=12;startArrow=diamondThin;startSize=14;startFill=0;edgeStyle=orthogonalEdgeStyle;align=left;verticalAlign=bottom;entryX=1;entryY=0.25;entryDx=0;entryDy=0;exitX=0;exitY=0.75;exitDx=0;exitDy=0;" edge="1" parent="1" source="wLuInHaEAMxixHWDk6zt-3" target="iWd5NyOoECmbzADoSU0J-10">
          <mxGeometry x="-1" y="3" relative="1" as="geometry">
            <mxPoint x="420" y="400" as="sourcePoint" />
            <mxPoint x="220" y="280" as="targetPoint" />
          </mxGeometry>
        </mxCell>
        <mxCell id="wLuInHaEAMxixHWDk6zt-16" value="" style="endArrow=open;html=1;endSize=12;startArrow=diamondThin;startSize=14;startFill=0;edgeStyle=orthogonalEdgeStyle;align=left;verticalAlign=bottom;entryX=0.5;entryY=0;entryDx=0;entryDy=0;exitX=0.5;exitY=1;exitDx=0;exitDy=0;" edge="1" parent="1" source="wLuInHaEAMxixHWDk6zt-3" target="wLuInHaEAMxixHWDk6zt-4">
          <mxGeometry x="-1" y="3" relative="1" as="geometry">
            <mxPoint x="420" y="440" as="sourcePoint" />
            <mxPoint x="220" y="553" as="targetPoint" />
          </mxGeometry>
        </mxCell>
        <mxCell id="wLuInHaEAMxixHWDk6zt-17" value="" style="endArrow=open;html=1;endSize=12;startArrow=diamondThin;startSize=14;startFill=0;edgeStyle=orthogonalEdgeStyle;align=left;verticalAlign=bottom;entryX=0;entryY=0.5;entryDx=0;entryDy=0;exitX=1;exitY=0.5;exitDx=0;exitDy=0;" edge="1" parent="1" source="wLuInHaEAMxixHWDk6zt-3" target="wLuInHaEAMxixHWDk6zt-5">
          <mxGeometry x="-1" y="3" relative="1" as="geometry">
            <mxPoint x="465" y="460" as="sourcePoint" />
            <mxPoint x="465" y="538" as="targetPoint" />
          </mxGeometry>
        </mxCell>
      </root>
    </mxGraphModel>
  </diagram>
  <diagram name="MVVM" id="uQm-4-SEOfxKTQ9WFlBp">
    <mxGraphModel dx="755" dy="324" grid="1" gridSize="10" guides="1" tooltips="1" connect="1" arrows="1" fold="1" page="1" pageScale="1" pageWidth="850" pageHeight="1100" math="0" shadow="0">
      <root>
        <mxCell id="yLuWPBMP9b1I59TNnEor-0" />
        <mxCell id="yLuWPBMP9b1I59TNnEor-1" parent="yLuWPBMP9b1I59TNnEor-0" />
        <mxCell id="yLuWPBMP9b1I59TNnEor-19" value="&lt;b&gt;&lt;font style=&quot;font-size: 45px&quot;&gt;MVVM&lt;/font&gt;&lt;/b&gt;" style="text;html=1;align=center;verticalAlign=middle;resizable=0;points=[];autosize=1;strokeColor=none;" vertex="1" parent="yLuWPBMP9b1I59TNnEor-1">
          <mxGeometry x="330" y="40" width="150" height="30" as="geometry" />
        </mxCell>
        <mxCell id="U1lQwH7t_C2MimtDIi9y-0" value="&lt;p style=&quot;margin: 0px ; margin-top: 4px ; text-align: center&quot;&gt;&lt;b&gt;View&lt;/b&gt;&lt;/p&gt;&lt;hr size=&quot;1&quot;&gt;&lt;p style=&quot;margin: 0px ; margin-left: 4px&quot;&gt;&lt;br&gt;&lt;/p&gt;&lt;hr size=&quot;1&quot;&gt;&lt;p style=&quot;margin: 0px ; margin-left: 4px&quot;&gt;+ Update()&lt;/p&gt;" style="verticalAlign=top;align=left;overflow=fill;fontSize=12;fontFamily=Helvetica;html=1;" vertex="1" parent="yLuWPBMP9b1I59TNnEor-1">
          <mxGeometry x="90" y="120" width="90" height="80" as="geometry" />
        </mxCell>
        <mxCell id="U1lQwH7t_C2MimtDIi9y-1" value="&lt;p style=&quot;margin: 0px ; margin-top: 4px ; text-align: center&quot;&gt;&lt;b&gt;Model&lt;/b&gt;&lt;/p&gt;&lt;hr size=&quot;1&quot;&gt;&lt;p style=&quot;margin: 0px ; margin-left: 4px&quot;&gt;&lt;br&gt;&lt;/p&gt;&lt;hr size=&quot;1&quot;&gt;&lt;p style=&quot;margin: 0px ; margin-left: 4px&quot;&gt;+ GetData()&lt;/p&gt;" style="verticalAlign=top;align=left;overflow=fill;fontSize=12;fontFamily=Helvetica;html=1;" vertex="1" parent="yLuWPBMP9b1I59TNnEor-1">
          <mxGeometry x="550" y="120" width="110" height="80" as="geometry" />
        </mxCell>
        <mxCell id="U1lQwH7t_C2MimtDIi9y-4" value="&lt;p style=&quot;margin: 0px ; margin-top: 4px ; text-align: center&quot;&gt;&lt;b&gt;Command&lt;/b&gt;&lt;/p&gt;&lt;hr size=&quot;1&quot;&gt;&lt;p style=&quot;margin: 0px ; margin-left: 4px&quot;&gt;&lt;br&gt;&lt;/p&gt;&lt;hr size=&quot;1&quot;&gt;&lt;p style=&quot;margin: 0px ; margin-left: 4px&quot;&gt;+ doCommand()&lt;/p&gt;&lt;p style=&quot;margin: 0px ; margin-left: 4px&quot;&gt;+ undoCommand&lt;/p&gt;" style="verticalAlign=top;align=left;overflow=fill;fontSize=12;fontFamily=Helvetica;html=1;" vertex="1" parent="yLuWPBMP9b1I59TNnEor-1">
          <mxGeometry x="350" y="258" width="110" height="92" as="geometry" />
        </mxCell>
        <mxCell id="U1lQwH7t_C2MimtDIi9y-13" value="&lt;p style=&quot;margin: 0px ; margin-top: 4px ; text-align: center&quot;&gt;&lt;b&gt;ViewModel&lt;/b&gt;&lt;/p&gt;&lt;hr size=&quot;1&quot;&gt;&lt;p style=&quot;margin: 0px ; margin-left: 4px&quot;&gt;- State&lt;/p&gt;&lt;hr size=&quot;1&quot;&gt;&lt;p style=&quot;margin: 0px ; margin-left: 4px&quot;&gt;+ Notify()&lt;/p&gt;" style="verticalAlign=top;align=left;overflow=fill;fontSize=12;fontFamily=Helvetica;html=1;" vertex="1" parent="yLuWPBMP9b1I59TNnEor-1">
          <mxGeometry x="360" y="120" width="90" height="80" as="geometry" />
        </mxCell>
        <mxCell id="U1lQwH7t_C2MimtDIi9y-14" value="" style="endArrow=open;endFill=1;endSize=12;html=1;entryX=1;entryY=0.25;entryDx=0;entryDy=0;exitX=0;exitY=0.25;exitDx=0;exitDy=0;" edge="1" parent="yLuWPBMP9b1I59TNnEor-1" source="U1lQwH7t_C2MimtDIi9y-13" target="U1lQwH7t_C2MimtDIi9y-0">
          <mxGeometry width="160" relative="1" as="geometry">
            <mxPoint x="330" y="60" as="sourcePoint" />
            <mxPoint x="490" y="60" as="targetPoint" />
          </mxGeometry>
        </mxCell>
        <mxCell id="U1lQwH7t_C2MimtDIi9y-15" value="" style="endArrow=open;endFill=1;endSize=12;html=1;entryX=0;entryY=0.75;entryDx=0;entryDy=0;exitX=1;exitY=0.75;exitDx=0;exitDy=0;" edge="1" parent="yLuWPBMP9b1I59TNnEor-1" source="U1lQwH7t_C2MimtDIi9y-0" target="U1lQwH7t_C2MimtDIi9y-13">
          <mxGeometry width="160" relative="1" as="geometry">
            <mxPoint x="370" y="149.9999999999999" as="sourcePoint" />
            <mxPoint x="190.00000000000023" y="149.9999999999999" as="targetPoint" />
          </mxGeometry>
        </mxCell>
        <mxCell id="U1lQwH7t_C2MimtDIi9y-17" value="Update View" style="edgeLabel;html=1;align=center;verticalAlign=middle;resizable=0;points=[];" vertex="1" connectable="0" parent="U1lQwH7t_C2MimtDIi9y-15">
          <mxGeometry x="0.2222" y="3" relative="1" as="geometry">
            <mxPoint x="-14" y="-47" as="offset" />
          </mxGeometry>
        </mxCell>
        <mxCell id="U1lQwH7t_C2MimtDIi9y-18" value="subject" style="edgeLabel;html=1;align=center;verticalAlign=middle;resizable=0;points=[];" vertex="1" connectable="0" parent="U1lQwH7t_C2MimtDIi9y-15">
          <mxGeometry x="0.1905" y="5" relative="1" as="geometry">
            <mxPoint x="-17" y="-5" as="offset" />
          </mxGeometry>
        </mxCell>
        <mxCell id="U1lQwH7t_C2MimtDIi9y-19" value="" style="endArrow=open;html=1;endSize=12;startArrow=diamondThin;startSize=14;startFill=0;edgeStyle=orthogonalEdgeStyle;align=left;verticalAlign=bottom;exitX=1;exitY=0.5;exitDx=0;exitDy=0;entryX=0;entryY=0.5;entryDx=0;entryDy=0;" edge="1" parent="yLuWPBMP9b1I59TNnEor-1" source="U1lQwH7t_C2MimtDIi9y-13" target="U1lQwH7t_C2MimtDIi9y-1">
          <mxGeometry x="-1" y="3" relative="1" as="geometry">
            <mxPoint x="510" y="260" as="sourcePoint" />
            <mxPoint x="510" y="160" as="targetPoint" />
          </mxGeometry>
        </mxCell>
        <mxCell id="U1lQwH7t_C2MimtDIi9y-20" value="" style="endArrow=open;html=1;endSize=12;startArrow=diamondThin;startSize=14;startFill=0;edgeStyle=orthogonalEdgeStyle;align=left;verticalAlign=bottom;exitX=0.5;exitY=1;exitDx=0;exitDy=0;entryX=0.5;entryY=0;entryDx=0;entryDy=0;" edge="1" parent="yLuWPBMP9b1I59TNnEor-1" source="U1lQwH7t_C2MimtDIi9y-13" target="U1lQwH7t_C2MimtDIi9y-4">
          <mxGeometry x="-1" y="3" relative="1" as="geometry">
            <mxPoint x="460" y="170" as="sourcePoint" />
            <mxPoint x="560" y="170" as="targetPoint" />
          </mxGeometry>
        </mxCell>
      </root>
    </mxGraphModel>
  </diagram>
</mxfile>
